#define C.xbm_width 13
#define C.xbm_height 13
static char C.xbm_bits[] = {
   0x00, 0x00, 0xe0, 0x01, 0x18, 0x06, 0xc4, 0x08, 0x24, 0x09, 0x12, 0x10,
   0x12, 0x10, 0x12, 0x10, 0x12, 0x10, 0x24, 0x09, 0xc4, 0x08, 0x18, 0x06,
   0xe0, 0x01};
