#define R.xbm_width 12
#define R.xbm_height 15
static char R.xbm_bits[] = {
   0x00, 0x00, 0x00, 0x00, 0xf0, 0x00, 0x08, 0x01, 0x74, 0x02, 0x94, 0x02,
   0x74, 0x02, 0x94, 0x02, 0x08, 0x01, 0xf0, 0x00, 0x00, 0x00, 0x00, 0x00,
   0x00, 0x00, 0x00, 0x00, 0x00, 0x00};
