#define Delta_width 13
#define Delta_height 9
static unsigned char Delta_bits[] = {
  0x40, 0x00, 0xe0, 0x00, 0xe0, 0x00, 0x90, 0x01, 0x90, 0x01, 0x08, 0x03,
  0x08, 0x03, 0x04, 0x06, 0xfc, 0x07, };
