#define Equiv_width 13
#define Equiv_height 9
static unsigned char Equiv_bits[] = {
  0x00, 0x00, 0x00, 0x00, 0xfc, 0x07, 0x00, 0x00, 0xfc, 0x07, 0x00, 0x00,
  0xfc, 0x07, 0x00, 0x00, 0x00, 0x00, };
