#define GreatEq_width 17
#define GreatEq_height 9
static unsigned char GreatEq_bits[] = {
  0x60, 0x00, 0x00, 0x80, 0x01, 0x00, 0x00, 0x06, 0x00, 0x00, 0x18, 0x00,
  0x00, 0x06, 0x00, 0x80, 0x01, 0x00, 0x60, 0x00, 0x00, 0x00, 0x00, 0x00,
  0xe0, 0x1f, 0x00, };
