#define infinity_width 17
#define infinity_height 9
static unsigned char infinity_bits[] = {
  0x00, 0x00, 0x00, 0x00, 0x00, 0x00, 0x78, 0x3c, 0x00, 0x84, 0x42, 0x00,
  0x04, 0x41, 0x00, 0x84, 0x42, 0x00, 0x78, 0x3c, 0x00, 0x00, 0x00, 0x00,
  0x00, 0x00, 0x00, };
