#define LAngle_width 7
#define LAngle_height 13
static unsigned char LAngle_bits[] = {
  0x10, 0x10, 0x08, 0x08, 0x04, 0x04, 0x02, 0x04, 0x04, 0x08, 0x08, 0x10,
  0x10, };
