#define LArrow_width 17
#define LArrow_height 9
static unsigned char LArrow_bits[] = {
  0x00, 0x00, 0x00, 0x80, 0x00, 0x00, 0xe0, 0x00, 0x00, 0xf8, 0xff, 0x00,
  0xfe, 0xff, 0x00, 0xf8, 0xff, 0x00, 0xe0, 0x00, 0x00, 0x80, 0x00, 0x00,
  0x00, 0x00, 0x00, };
