#define LessEq_width 17
#define LessEq_height 9
static unsigned char LessEq_bits[] = {
  0x00, 0x0c, 0x00, 0x00, 0x03, 0x00, 0xc0, 0x00, 0x00, 0x30, 0x00, 0x00,
  0xc0, 0x00, 0x00, 0x00, 0x03, 0x00, 0x00, 0x0c, 0x00, 0x00, 0x00, 0x00,
  0xf0, 0x0f, 0x00, };
