#define LFloor_width 7
#define LFloor_height 13
static unsigned char LFloor_bits[] = {
  0x02, 0x02, 0x02, 0x02, 0x02, 0x02, 0x02, 0x02, 0x02, 0x02, 0x02, 0x02,
  0x3e, };
