#define NotEq_width 13
#define NotEq_height 9
static unsigned char NotEq_bits[] = {
  0x00, 0x01, 0x00, 0x01, 0x80, 0x00, 0xfc, 0x07, 0x40, 0x00, 0xfc, 0x07,
  0x20, 0x00, 0x10, 0x00, 0x10, 0x00, };
