#define Prime_width 5
#define Prime_height 9
static unsigned char Prime_bits[] = {
  0x0c, 0x0c, 0x04, 0x04, 0x00, 0x00, 0x00, 0x00, 0x00, };
