#define RAngle_width 7
#define RAngle_height 13
static unsigned char RAngle_bits[] = {
  0x04, 0x04, 0x08, 0x08, 0x10, 0x10, 0x20, 0x10, 0x10, 0x08, 0x08, 0x04,
  0x04, };
