#define RFloor_width 7
#define RFloor_height 13
static unsigned char RFloor_bits[] = {
  0x20, 0x20, 0x20, 0x20, 0x20, 0x20, 0x20, 0x20, 0x20, 0x20, 0x20, 0x20,
  0x3e, };
